<svg width="34" height="34" fill="none" xmlns="http://www.w3.org/2000/svg"><path d="M32.733 23.624a41.7 41.7 0 0 0-6.12-1.932c-.309-3.765-1.892-7.153-4.342-9.193l4.909-4.82a.528.528 0 0 0 .179-.41.528.528 0 0 0-.18-.41l-1.67-1.642a.585.585 0 0 0-.837 0l-5.192 5.117a1.877 1.877 0 0 1-.062-.486v-.996c1.433-.82 2.388-2.345 2.388-4.045l-.001-.059.001-.058c0-2.58-2.15-4.69-4.776-4.69-2.627 0-4.777 2.11-4.777 4.69l.002.058-.002.059c0 1.641.956 3.224 2.389 4.045v.996c0 .645-.418 1.29-1.075 1.583-3.358 1.649-5.705 5.612-6.062 10.18a36.626 36.626 0 0 0-6.238 2.072c-.179.058-.358.234-.358.469 0 .234.06.41.239.527l2.388 1.583a.59.59 0 0 0 .537.059 58.695 58.695 0 0 1 3.412-1.009c.08 3.299.726 6.257 1.843 8.395a.63.63 0 0 0 .537.293h2.985c.18 0 .478-.117.538-.293.06-.176.12-.41 0-.586-.717-1.349-1.075-3.283-1.135-5.687 3.105-.586 6.508-.586 9.553 0-.06 2.404-.418 4.338-1.134 5.687a.524.524 0 0 0 0 .586c.12.176.358.293.537.293h2.986c.238 0 .417-.117.477-.293 1.12-2.142 1.766-5.108 1.843-8.415 1.125.293 2.278.636 3.471 1.029.06.058.12.058.18.058a.33.33 0 0 0 .298-.175l2.388-1.583c.179-.117.239-.293.239-.528 0-.176-.18-.41-.358-.469Zm-7.404-2.227a43.46 43.46 0 0 0-7.401-.86 43.018 43.018 0 0 0-3.758.033l7.278-7.146c2.15 1.759 3.582 4.69 3.881 7.973ZM15.487 7.862l-.01-.007a3.53 3.53 0 0 1-2.011-2.806v-.007c-.005-.05-.01-.1-.012-.151l-.002-.04a3.489 3.489 0 0 1-.004-.161c0-1.935 1.612-3.518 3.582-3.518 1.97 0 3.582 1.583 3.523 3.518 0 1.348-.777 2.579-2.03 3.165a.822.822 0 0 0-.147.092 3.606 3.606 0 0 1-2.889-.085Zm-1.383 4.507c1.075-.528 1.732-1.524 1.732-2.638V9.23a4.824 4.824 0 0 0 2.328.014v.487c0 .469.18.997.418 1.407L8.79 20.752c.538-3.81 2.568-7.035 5.314-8.383Zm9.732 20.459h-1.731c.597-1.525.895-3.518.895-5.863a.573.573 0 0 0-.477-.586c-3.463-.762-7.463-.762-10.986 0a.573.573 0 0 0-.478.586c0 2.345.299 4.338.896 5.863h-1.732c-.955-1.994-1.492-4.69-1.552-7.738.239-.059.418-.118.657-.176 5.194-1.114 9.851-1.114 14.986-.059.358.059.716.176 1.075.235-.06 3.048-.597 5.744-1.553 7.738Zm6.27-7.68c-4.233-1.359-7.991-2.111-11.698-2.259-3.084-.137-6.122.142-9.379.852-.358.118-.776.176-1.134.294l-.029.014a57.92 57.92 0 0 0-3.852 1.1l-1.254-.822c1.673-.711 3.554-1.27 5.449-1.674.015.008.03.019.044.033.06-.058.12-.058.18-.058a.202.202 0 0 1 .037-.03l.141-.029c.12-.059.24-.117.299-.176l10.866-10.61a.628.628 0 0 0 .133-.189l5.181-5.087.836.82-13.852 13.6c-.179.176-.239.41-.12.645.12.235.36.352.598.352l.024-.002.036.002c2.588-.244 5.26-.26 7.903-.024 1.549.144 3.091.372 4.614.682.247.052.493.106.737.163h.024c1.845.41 3.656.94 5.41 1.583l-1.194.82Z" fill="#030305"/></svg>